<svg width="89" height="36" viewBox="0 0 89 36" fill="none" xmlns="http://www.w3.org/2000/svg">
<path d="M10.085 7.64C10.4583 7.64 10.8433 7.815 11.24 8.165C11.6367 8.49167 11.835 8.84167 11.835 9.215C11.835 9.565 11.6717 9.83333 11.345 10.02C11.0417 10.2067 10.7033 10.3 10.33 10.3C9.95667 10.3 9.64167 10.1367 9.385 9.81C9.15167 9.46 9.035 9.08667 9.035 8.69C9.035 7.99 9.385 7.64 10.085 7.64ZM6.935 20.66C5.62833 22.06 4.29833 23.0633 2.945 23.67C2.525 23.8567 2.18667 23.95 1.93 23.95C1.23 23.95 0.88 23.6 0.88 22.9C0.88 22.4567 1.23 22.095 1.93 21.815C2.30333 21.675 2.79333 21.395 3.4 20.975C4.03 20.555 4.45 20.24 4.66 20.03C4.87 19.82 5.23167 19.435 5.745 18.875C6.28167 18.315 6.70167 17.895 7.005 17.615C7.30833 17.3117 7.71667 17.0083 8.23 16.705C8.76667 16.4017 9.25667 16.25 9.7 16.25C10.61 16.25 11.31 16.5767 11.8 17.23C12.29 17.8833 12.5817 18.6067 12.675 19.4C12.9317 21.5 13.34 22.55 13.9 22.55C14.3433 22.55 14.915 22.4333 15.615 22.2C16.315 21.9667 16.7 21.85 16.77 21.85C17.47 21.85 17.82 22.2 17.82 22.9C17.82 23.4133 17.47 23.7867 16.77 24.02C15.51 24.44 14.4833 24.65 13.69 24.65C12.92 24.65 12.29 24.3233 11.8 23.67C11.31 23.0167 11.0183 22.2933 10.925 21.5C10.6683 19.4 10.26 18.35 9.7 18.35C9.39667 18.35 9.04667 18.5483 8.65 18.945C8.27667 19.3183 7.97333 19.6217 7.74 19.855C7.50667 20.065 7.23833 20.3333 6.935 20.66ZM20.2323 11.49C20.2089 11.1633 20.1973 10.65 20.1973 9.95C20.1973 7.43 20.4306 4.77 20.8973 1.97C21.0139 1.27 21.3639 0.919999 21.9473 0.919999C22.6473 0.919999 22.9973 1.25833 22.9973 1.935C22.9973 2.05167 22.9739 2.25 22.9273 2.53C22.5073 5.05 22.2973 7.52333 22.2973 9.95V11.105C25.3539 10.5683 27.5706 10.3 28.9473 10.3C29.6473 10.3 29.9973 10.65 29.9973 11.35C29.9973 12.05 29.6473 12.4 28.9473 12.4C27.5939 12.4 25.4123 12.6683 22.4023 13.205C22.8923 19.6683 24.9573 22.9 28.5973 22.9C29.4139 22.9 30.4289 22.725 31.6423 22.375C32.8556 22.025 33.4973 21.85 33.5673 21.85C34.2673 21.85 34.6173 22.2 34.6173 22.9C34.6173 23.4133 34.2673 23.7867 33.5673 24.02C31.6073 24.6733 29.9506 25 28.5973 25C26.4273 25 24.5956 24.1133 23.1023 22.34C21.6089 20.5667 20.6873 17.65 20.3373 13.59L19.5323 13.765C19.3223 13.7883 19.1939 13.8 19.1473 13.8C18.4473 13.8 18.0973 13.45 18.0973 12.75C18.0973 12.19 18.4473 11.84 19.1473 11.7C19.5906 11.6067 19.9523 11.5367 20.2323 11.49ZM55.6337 24.02C54.3737 24.44 53.3937 24.65 52.6937 24.65C51.9937 24.65 51.4453 24.3933 51.0487 23.88C50.652 23.3667 50.2903 22.4917 49.9637 21.255C49.6603 20.0183 49.427 19.4 49.2637 19.4C48.657 19.4 48.0153 20.3333 47.3387 22.2C47.082 22.9 46.662 23.5417 46.0787 24.125C45.4953 24.7083 44.7603 25 43.8737 25C43.0103 25 42.3337 24.615 41.8437 23.845C41.3537 23.075 41.062 22.235 40.9687 21.325C40.8987 20.415 40.782 19.575 40.6187 18.805C40.4553 18.035 40.187 17.65 39.8137 17.65C39.557 17.65 39.3703 17.72 39.2537 17.86C39.137 18 39.032 18.14 38.9387 18.28C38.8687 18.3967 38.787 18.525 38.6937 18.665C38.6237 18.7817 38.5303 18.945 38.4137 19.155C38.3203 19.365 38.2037 19.5867 38.0637 19.82C37.597 20.6367 37.2237 21.2433 36.9437 21.64C36.3837 22.5267 35.5553 23.2033 34.4587 23.67C34.0387 23.8567 33.7003 23.95 33.4437 23.95C32.7437 23.95 32.3937 23.6 32.3937 22.9C32.3937 22.4567 32.767 22.095 33.5137 21.815C34.2603 21.535 34.7853 21.1383 35.0887 20.625C35.4153 20.0883 35.777 19.4817 36.1737 18.805C36.5703 18.1283 36.8387 17.6733 36.9787 17.44C37.142 17.2067 37.3403 16.9267 37.5737 16.6C37.807 16.25 38.017 16.0283 38.2037 15.935C38.6937 15.6783 39.2303 15.55 39.8137 15.55C40.7703 15.55 41.4937 15.935 41.9837 16.705C42.4737 17.475 42.7537 18.315 42.8237 19.225C42.917 20.135 43.0453 20.975 43.2087 21.745C43.372 22.515 43.6403 22.9 44.0137 22.9C44.387 22.9 44.737 22.6083 45.0637 22.025C45.4137 21.4417 45.717 20.8 45.9737 20.1C46.2303 19.4 46.6387 18.7583 47.1987 18.175C47.782 17.5917 48.4703 17.3 49.2637 17.3C49.8703 17.3 50.3137 17.4517 50.5937 17.755C50.8737 18.035 51.072 18.2567 51.1887 18.42C51.3287 18.5833 51.4453 18.8283 51.5387 19.155C51.6553 19.4817 51.737 19.7267 51.7837 19.89C51.8303 20.03 51.9003 20.2867 51.9937 20.66C52.2737 21.9433 52.5303 22.5733 52.7637 22.55C53.207 22.55 53.7787 22.4333 54.4787 22.2C55.1787 21.9667 55.5637 21.85 55.6337 21.85C56.3337 21.85 56.6837 22.2 56.6837 22.9C56.6837 23.4133 56.3337 23.7867 55.6337 24.02ZM57.9046 20.31C57.9512 20.24 58.0562 19.7383 58.2196 18.805C58.4062 17.8717 58.6162 16.9617 58.8496 16.075C59.1062 15.165 59.5496 14.325 60.1796 13.555C60.8329 12.785 61.6146 12.4 62.5246 12.4C64.2979 12.4 65.7912 12.8667 67.0046 13.8C68.2412 14.71 68.8596 15.8883 68.8596 17.335C68.8596 18.7817 69.0579 20.0767 69.4546 21.22C69.8512 22.34 70.3762 22.9 71.0296 22.9C71.4729 22.9 72.0212 22.76 72.6746 22.48C73.7246 22.06 74.3429 21.85 74.5296 21.85C75.2296 21.85 75.5796 22.2 75.5796 22.9C75.5796 23.4133 75.2296 23.7867 74.5296 24.02C73.2229 24.6733 72.0446 25 70.9946 25C69.9679 25 69.1162 24.5683 68.4396 23.705C67.7629 22.8183 67.3079 21.8383 67.0746 20.765C66.8646 19.6917 66.7596 18.5367 66.7596 17.3C66.7596 16.4833 66.3629 15.8183 65.5696 15.305C64.7762 14.7683 63.7729 14.5 62.5596 14.5C61.5796 14.5 60.8096 16.0633 60.2496 19.19C60.0162 20.4033 59.8529 21.1033 59.7596 21.29C59.3629 22.1067 58.2779 22.9 56.5046 23.67C56.0846 23.8567 55.7462 23.95 55.4896 23.95C54.7896 23.95 54.4396 23.6 54.4396 22.9C54.4396 22.4567 54.7896 22.095 55.4896 21.815C56.8662 21.255 57.6712 20.7533 57.9046 20.31ZM88.4609 15.55C88.4609 18.49 88.3209 21.64 88.0409 25C87.7843 28.3833 87.4576 30.9733 87.0609 32.77C86.6176 34.87 85.5676 35.92 83.9109 35.92C80.8776 35.92 79.3609 33.89 79.3609 29.83C79.3609 28.71 79.6643 27.625 80.2709 26.575C80.9009 25.525 81.6009 25 82.3709 25C83.1643 25 83.5609 25.35 83.5609 26.05C83.5609 26.2133 83.3976 26.4117 83.0709 26.645C81.9976 27.3917 81.4609 28.43 81.4609 29.76C81.4609 31.1133 81.6243 32.1283 81.9509 32.805C82.3009 33.4817 82.9543 33.82 83.9109 33.82C84.4709 33.82 84.8559 33.2833 85.0659 32.21C85.5093 30.1333 85.8709 26.8433 86.1509 22.34C86.2443 20.9167 86.2793 20.0533 86.2559 19.75C85.7659 20.45 85.4043 20.8933 85.1709 21.08C84.9609 21.2433 84.7393 21.4183 84.5059 21.605C84.2959 21.7683 84.0859 21.9083 83.8759 22.025C83.6893 22.1183 83.4443 22.235 83.1409 22.375C82.8609 22.4917 82.5693 22.585 82.2659 22.655C81.5659 22.8183 80.8309 22.9 80.0609 22.9C78.8243 22.9 77.9376 22.2 77.4009 20.8C76.6776 18.9567 76.1759 16.6233 75.8959 13.8C75.8726 13.66 75.8609 13.4733 75.8609 13.24C75.8609 12.68 76.1876 12.4 76.8409 12.4C77.5176 12.4 77.8909 12.75 77.9609 13.45C78.1243 14.99 78.3926 16.6 78.7659 18.28C79.1626 19.96 79.5943 20.8 80.0609 20.8C81.5776 20.8 82.7559 20.415 83.5959 19.645C84.4359 18.875 85.3576 17.51 86.3609 15.55C86.6409 14.85 86.9909 14.5 87.4109 14.5C88.1109 14.5 88.4609 14.85 88.4609 15.55Z" fill="white"/>
</svg>
